<svg width="16" height="17" viewBox="0 0 16 17" fill="none" xmlns="http://www.w3.org/2000/svg">
<mask id="mask0_98728_515" style="mask-type:alpha" maskUnits="userSpaceOnUse" x="0" y="0" width="16" height="17">
<rect y="0.760254" width="15.4794" height="15.4794" fill="#D9D9D9"/>
</mask>
<g mask="url(#mask0_98728_515)">
<path d="M2.28978 8.49994L7.03034 13.2405C7.19158 13.4017 7.26951 13.5899 7.26414 13.8049C7.25876 14.0198 7.17546 14.208 7.01421 14.3692C6.85297 14.5304 6.66485 14.6111 6.44986 14.6111C6.23487 14.6111 6.04675 14.5304 5.88551 14.3692L0.919211 9.41903C0.790216 9.29003 0.69347 9.14492 0.628973 8.98367C0.564475 8.82243 0.532227 8.66119 0.532227 8.49994C0.532227 8.3387 0.564475 8.17746 0.628973 8.01621C0.69347 7.85497 0.790216 7.70985 0.919211 7.58085L5.88551 2.61456C6.04675 2.45331 6.23756 2.37538 6.45792 2.38075C6.67829 2.38613 6.86909 2.46944 7.03034 2.63068C7.19158 2.79192 7.2722 2.98004 7.2722 3.19503C7.2722 3.41002 7.19158 3.59814 7.03034 3.75938L2.28978 8.49994Z" fill="white"/>
</g>
</svg>
