<svg width="25" height="24" viewBox="0 0 25 24" fill="none" xmlns="http://www.w3.org/2000/svg">
<path d="M12.145 9C11.3494 9 10.5863 9.31607 10.0237 9.87868C9.46109 10.4413 9.14502 11.2044 9.14502 12C9.14502 12.7956 9.46109 13.5587 10.0237 14.1213C10.5863 14.6839 11.3494 15 12.145 15C12.9407 15 13.7037 14.6839 14.2663 14.1213C14.8289 13.5587 15.145 12.7956 15.145 12C15.145 11.2044 14.8289 10.4413 14.2663 9.87868C13.7037 9.31607 12.9407 9 12.145 9ZM12.145 17C10.8189 17 9.54717 16.4732 8.60949 15.5355C7.6718 14.5979 7.14502 13.3261 7.14502 12C7.14502 10.6739 7.6718 9.40215 8.60949 8.46447C9.54717 7.52678 10.8189 7 12.145 7C13.4711 7 14.7429 7.52678 15.6806 8.46447C16.6182 9.40215 17.145 10.6739 17.145 12C17.145 13.3261 16.6182 14.5979 15.6806 15.5355C14.7429 16.4732 13.4711 17 12.145 17ZM12.145 4.5C7.14502 4.5 2.87502 7.61 1.14502 12C2.87502 16.39 7.14502 19.5 12.145 19.5C17.145 19.5 21.415 16.39 23.145 12C21.415 7.61 17.145 4.5 12.145 4.5Z" fill="white"/>
</svg>
